<svg width="24" height="24" viewBox="0 0 24 24" fill="none" xmlns="http://www.w3.org/2000/svg">
<g clip-path="url(#clip0_18_86)">
<path d="M20.7658 0.000244141H3.2342C1.44794 0.000244141 0 1.44818 0 3.23444V20.766C0 22.5523 1.44794 24.0002 3.2342 24.0002H11.8807L11.8954 15.4242H9.66737C9.37749 15.4242 9.14265 15.19 9.14191 14.9002L9.13091 12.1356C9.12944 11.845 9.36575 11.608 9.65636 11.608H11.8807V8.93667C11.8807 5.83677 13.7741 4.14885 16.5394 4.14885H18.8085C19.0984 4.14885 19.334 4.38443 19.334 4.67431V7.00511C19.334 7.29572 19.0984 7.53056 18.8085 7.53056H17.4156C15.9119 7.5313 15.6206 8.24609 15.6206 9.2948V11.6073H18.9252C19.2401 11.6073 19.4845 11.8825 19.447 12.1944L19.119 14.9589C19.0874 15.2238 18.8636 15.4227 18.5972 15.4227H15.6353L15.6206 23.9988H20.7658C22.5521 23.9988 24 22.5508 24 20.7646V3.23444C24 1.44818 22.5521 0.000244141 20.7658 0.000244141Z" fill="white"/>
</g>
<defs>
<clipPath id="clip0_18_86">
<rect width="24" height="24" fill="white" transform="translate(0 0.000244141)"/>
</clipPath>
</defs>
</svg>
