<svg width="24" height="24" viewBox="0 0 24 24" fill="none" xmlns="http://www.w3.org/2000/svg">
<g clip-path="url(#clip0_18_90)">
<path d="M23.9281 6.98868C23.8694 5.72257 23.6668 4.85862 23.3703 4.1023C23.0636 3.3198 22.6533 2.6573 21.9862 1.99552C21.3191 1.33447 20.6498 0.927945 19.8602 0.623963C19.097 0.330162 18.2251 0.129447 16.9474 0.0712685C15.6676 0.0138174 15.2588 0 12.0004 0C8.74195 0 8.33245 0.0138174 7.05256 0.0712685C5.77488 0.129447 4.90304 0.330162 4.1398 0.623963C3.35015 0.927945 2.68086 1.33447 2.01376 1.99552C1.34667 2.6573 0.936428 3.3198 0.629667 4.1023C0.33318 4.85862 0.13063 5.72257 0.07192 6.98868C0.0139437 8.25697 0 8.66204 0 11.8917C0 15.1213 0.0139437 15.5256 0.07192 16.7939C0.13063 18.06 0.33318 18.924 0.629667 19.681C0.936428 20.4628 1.34667 21.126 2.01376 21.7871C2.68086 22.4481 3.35015 22.8547 4.1398 23.1586C4.90304 23.4524 5.77488 23.6532 7.05256 23.7113C8.33245 23.7688 8.74122 23.7826 12.0004 23.7826C15.2595 23.7826 15.6676 23.7688 16.9474 23.7113C18.2251 23.6532 19.097 23.4524 19.8602 23.1586C20.6498 22.8547 21.3191 22.4481 21.9862 21.7871C22.6533 21.126 23.0636 20.4628 23.3703 19.681C23.6668 18.924 23.8694 18.06 23.9281 16.7939C23.9861 15.5256 24 15.1206 24 11.8917C24 8.66276 23.9861 8.25697 23.9281 6.98868ZM21.7683 16.6965C21.7147 17.8557 21.5188 18.4855 21.3544 18.9043C21.1371 19.4592 20.8766 19.8556 20.4568 20.2715C20.0371 20.6882 19.6371 20.9457 19.0772 21.1617C18.6544 21.3238 18.0189 21.518 16.8491 21.5711C15.5839 21.6278 15.2045 21.6402 12.0004 21.6402C8.79626 21.6402 8.41611 21.6278 7.1509 21.5711C5.9811 21.518 5.34556 21.3238 4.92285 21.1617C4.3629 20.9457 3.96294 20.6882 3.54316 20.2715C3.12338 19.8556 2.86286 19.4592 2.64563 18.9043C2.48124 18.4855 2.2853 17.8557 2.23246 16.6965C2.17448 15.4427 2.162 15.0668 2.162 11.8917C2.162 8.71658 2.17448 8.33987 2.23246 7.08613C2.2853 5.92692 2.48124 5.29714 2.64563 4.87826C2.86286 4.32338 3.12338 3.92704 3.54316 3.51107C3.96294 3.09509 4.3629 2.83692 4.92285 2.62166C5.34556 2.45876 5.9811 2.26459 7.1509 2.21223C8.41611 2.15478 8.79552 2.14242 12.0004 2.14242C15.2052 2.14242 15.5839 2.15478 16.8491 2.21223C18.0189 2.26459 18.6544 2.45876 19.0772 2.62166C19.6371 2.83692 20.0371 3.09509 20.4568 3.51107C20.8766 3.92704 21.1371 4.32338 21.3544 4.87826C21.5188 5.29714 21.7147 5.92692 21.7683 7.08613C21.8255 8.33987 21.838 8.71658 21.838 11.8917C21.838 15.0668 21.8255 15.4427 21.7683 16.6965Z" fill="white"/>
<path d="M18.4057 6.97059C19.2009 6.97059 19.8455 6.33178 19.8455 5.54377C19.8455 4.75575 19.2009 4.11694 18.4057 4.11694C17.6104 4.11694 16.9658 4.75575 16.9658 5.54377C16.9658 6.33178 17.6104 6.97059 18.4057 6.97059Z" fill="white"/>
<path d="M12.0004 5.78516C8.59663 5.78516 5.83798 8.51881 5.83798 11.8917C5.83798 15.2646 8.59663 17.9975 12.0004 17.9975C15.4041 17.9975 18.162 15.2639 18.162 11.8917C18.162 8.51954 15.4033 5.78516 12.0004 5.78516ZM12.0004 15.8551C9.79065 15.8551 7.99999 14.0807 7.99999 11.8917C7.99999 9.70274 9.79065 7.92758 12.0004 7.92758C14.2101 7.92758 16 9.70202 16 11.8917C16 14.0814 14.2093 15.8551 12.0004 15.8551Z" fill="white"/>
</g>
<defs>
<clipPath id="clip0_18_90">
<rect width="24" height="23.7826" fill="white"/>
</clipPath>
</defs>
</svg>
