<svg width="32" height="32" viewBox="0 0 32 32" fill="none" xmlns="http://www.w3.org/2000/svg">
<g clip-path="url(#clip0_88_2586)">
<path d="M16 1C11.58 1 8 4.58 8 9C8 17 16 25 16 25C16 25 24 17 24 9C24 4.58 20.42 1 16 1Z" stroke="white" stroke-width="2" stroke-linejoin="round"/>
<path d="M16 12C17.6569 12 19 10.6569 19 9C19 7.34315 17.6569 6 16 6C14.3431 6 13 7.34315 13 9C13 10.6569 14.3431 12 16 12Z" stroke="white" stroke-width="2" stroke-linejoin="round"/>
<path d="M25 19H29L31 31H1L3 19H7" stroke="white" stroke-width="2" stroke-linejoin="round"/>
<path d="M12 27H10" stroke="white" stroke-width="2" stroke-linejoin="round"/>
<path d="M7 27H5" stroke="white" stroke-width="2" stroke-linejoin="round"/>
<path d="M21 27H19" stroke="white" stroke-width="2" stroke-linejoin="round"/>
<path d="M26 27H24" stroke="white" stroke-width="2" stroke-linejoin="round"/>
<path d="M25 23H23" stroke="white" stroke-width="2" stroke-linejoin="round"/>
<path d="M8 23H6" stroke="white" stroke-width="2" stroke-linejoin="round"/>
</g>
<defs>
<clipPath id="clip0_88_2586">
<rect width="32" height="32" fill="white"/>
</clipPath>
</defs>
</svg>
