<svg width="61" height="61" viewBox="0 0 61 61" fill="none" xmlns="http://www.w3.org/2000/svg">
<g clip-path="url(#clip0_19_98)">
<path d="M21.9903 30.5V20.2641C21.9903 18.7975 23.5737 17.8847 24.8456 18.6158L33.7101 23.7338L42.5746 28.8517C43.8421 29.5828 43.8421 31.4128 42.5746 32.1483L33.7101 37.2662L24.8456 42.3842C23.578 43.1153 21.9903 42.2025 21.9903 40.7359V30.5Z" fill="white"/>
<path d="M30.5 61C13.6839 61 0 47.3204 0 30.5C0 13.6796 13.6839 0 30.5 0C47.3161 0 61 13.6839 61 30.5C61 47.3161 47.3161 61 30.5 61ZM30.5 1.29787C14.3977 1.29787 1.29787 14.3977 1.29787 30.5C1.29787 46.6023 14.3977 59.7021 30.5 59.7021C46.6023 59.7021 59.7021 46.6023 59.7021 30.5C59.7021 14.3977 46.6023 1.29787 30.5 1.29787Z" fill="white"/>
</g>
<defs>
<clipPath id="clip0_19_98">
<rect width="61" height="61" fill="white"/>
</clipPath>
</defs>
</svg>
