<svg width="33" height="31" viewBox="0 0 33 31" fill="none" xmlns="http://www.w3.org/2000/svg">
<g clip-path="url(#clip0_18_80)">
<path fill-rule="evenodd" clip-rule="evenodd" d="M32.832 0.124256C32.6851 -0.00651988 32.4761 -0.0368606 32.2989 0.0465514L0.285466 15.144C0.113116 15.2253 0.00212985 15.3999 2.86373e-05 15.5927C-0.00201365 15.7856 0.105323 15.9625 0.275995 16.0475L9.33574 20.5604C9.50188 20.6432 9.69998 20.6245 9.84835 20.5119L18.6569 13.8296L11.7418 21.0492C11.6432 21.1523 11.5929 21.2934 11.6037 21.4366L12.2922 30.5377C12.3075 30.7394 12.4407 30.9118 12.63 30.975C12.6806 30.9918 12.7326 31 12.784 31C12.925 31 13.0621 30.9386 13.1575 30.8265L17.9661 25.1707L23.9106 28.0535C24.0396 28.1161 24.189 28.1187 24.3201 28.0609C24.4512 28.0029 24.551 27.8901 24.5939 27.7517L32.9773 0.650662C33.0359 0.461408 32.9788 0.255031 32.832 0.124256Z" fill="white"/>
</g>
<defs>
<clipPath id="clip0_18_80">
<rect width="33" height="31" fill="white"/>
</clipPath>
</defs>
</svg>
