<svg width="28" height="24" viewBox="0 0 28 24" fill="none" xmlns="http://www.w3.org/2000/svg">
<g clip-path="url(#clip0_18_88)">
<path d="M28.0003 2.84108C26.9698 3.32324 25.8628 3.64835 24.7008 3.79513C25.8864 3.0451 26.7979 1.85769 27.2266 0.442772C26.1167 1.13702 24.8872 1.64119 23.5784 1.91273C22.5312 0.735589 21.038 0.000244141 19.3855 0.000244141C16.2133 0.000244141 13.6409 2.71266 13.6409 6.05914C13.6409 6.53396 13.6917 6.9963 13.7898 7.43956C9.01587 7.18711 4.78258 4.77485 1.94995 1.10913C1.45523 2.00373 1.17203 3.04437 1.17203 4.15546C1.17203 6.25728 2.18583 8.11179 3.72774 9.19867C2.78631 9.16711 1.90054 8.89484 1.12611 8.44057C1.12611 8.46552 1.12611 8.49121 1.12611 8.51689C1.12611 11.4524 3.10638 13.9014 5.73445 14.4576C5.25225 14.5963 4.74501 14.6705 4.22106 14.6705C3.85089 14.6705 3.49116 14.6323 3.14047 14.5618C3.87177 16.969 5.99329 18.7207 8.50654 18.7692C6.54019 20.394 4.06381 21.3627 1.37243 21.3627C0.909018 21.3627 0.451176 21.3341 0.00238037 21.2776C2.54486 22.997 5.56397 24.0002 8.80852 24.0002C19.3751 24.0002 25.153 14.7681 25.153 6.76146C25.153 6.49873 25.1475 6.23747 25.1363 5.97768C26.2587 5.12344 27.2328 4.05639 28.0031 2.84108H28.0003Z" fill="white"/>
</g>
<defs>
<clipPath id="clip0_18_88">
<rect width="28" height="24" fill="white" transform="translate(0 0.000244141)"/>
</clipPath>
</defs>
</svg>
