<svg width="24" height="24" viewBox="0 0 24 24" fill="none" xmlns="http://www.w3.org/2000/svg">
<path d="M20.7658 0H3.2342C1.44794 0 0 1.44794 0 3.2342V20.7658C0 22.5521 1.44794 24 3.2342 24H11.8807L11.8954 15.4239H9.66737C9.37749 15.4239 9.14265 15.1898 9.14191 14.8999L9.13091 12.1354C9.12944 11.8448 9.36575 11.6077 9.65636 11.6077H11.8807V8.93643C11.8807 5.83653 13.7741 4.14861 16.5394 4.14861H18.8085C19.0984 4.14861 19.334 4.38418 19.334 4.67407V7.00486C19.334 7.29548 19.0984 7.53032 18.8085 7.53032H17.4156C15.9119 7.53105 15.6206 8.24585 15.6206 9.29456V11.607H18.9252C19.2401 11.607 19.4845 11.8822 19.447 12.1941L19.119 14.9586C19.0874 15.2236 18.8636 15.4224 18.5972 15.4224H15.6353L15.6206 23.9985H20.7658C22.5521 23.9985 24 22.5506 24 20.7643V3.2342C24 1.44794 22.5521 0 20.7658 0Z" fill="white"/>
</svg>
