<svg width="220" height="80" viewBox="0 0 220 80" fill="none" xmlns="http://www.w3.org/2000/svg">
<g clip-path="url(#clip0_2_50)">
<path d="M99.8661 20.411V25.0235C98.5979 25.9488 96.6604 26.5853 94.9976 26.5853C91.3645 26.5853 88.6026 23.9455 88.6026 20.465C88.6026 16.9845 91.4161 14.38 95.1526 14.38C96.9352 14.38 98.7529 15.0658 99.9695 16.1297L98.4453 18.0672C97.5552 17.2452 96.3199 16.7309 95.155 16.7309C93.0296 16.7309 91.3833 18.3607 91.3833 20.4674C91.3833 22.574 93.046 24.2227 95.1714 24.2227C95.8924 24.2227 96.7496 23.9643 97.5199 23.5721V20.4181H99.8685L99.8661 20.411Z" fill="#BE1724"/>
<path d="M108.866 14.4622H106.073L100.862 26.4607H103.654L104.598 24.131H110.153L111.094 26.4607H113.992L108.866 14.4622ZM105.488 21.9516L107.393 17.2898L109.279 21.9516H105.488Z" fill="#BE1724"/>
<path d="M118.107 24.1991H124.913L124.897 26.4607H114.455V24.6266L121.177 16.7238H114.678V14.4622H124.81V16.2776L118.107 24.1991Z" fill="#BE1724"/>
<path d="M129.542 11.8225C129.542 12.6797 128.96 13.2973 128.119 13.2973C127.278 13.2973 126.696 12.6797 126.696 11.8225C126.696 10.9653 127.278 10.3476 128.119 10.3476C128.96 10.3476 129.542 10.9653 129.542 11.8225Z" fill="#BE1724"/>
<path d="M129.474 14.4622H126.766V26.4631H129.474V14.4622Z" fill="#BE1724"/>
<path d="M138.765 14.4622H135.972L130.761 26.4607H133.553L134.497 24.131H140.052L140.993 26.4607H143.891L138.765 14.4622ZM135.387 21.9516L137.292 17.2898L139.178 21.9516H135.387Z" fill="#BE1724"/>
<path d="M153.544 26.4607L147.731 18.7646V26.4607H145.143V14.4622H147.612L153.441 22.1747V14.4622H156.012V26.4607H153.544Z" fill="#BE1724"/>
<path d="M163.83 16.759V26.4607H161.123V16.759H157.471V14.4622H167.499V16.759H163.83Z" fill="#BE1724"/>
<path d="M171.665 16.7073V19.3119H177.459V21.5594H171.665V24.2156H178.283V26.4607H168.957V14.4622H178.093V16.7073H171.665Z" fill="#BE1724"/>
<path d="M185.5 14.4622H180.409V26.4607H183.119V23.0343H185.5C188.553 23.0343 190.301 21.4208 190.301 18.6284C190.301 15.836 188.553 14.4622 185.5 14.4622ZM185.364 20.7703H183.119V16.7073H185.364C186.872 16.7073 187.729 17.3743 187.729 18.713C187.729 20.0516 186.872 20.7703 185.364 20.7703Z" fill="#BE1724"/>
<path d="M99.8661 39.9741V44.5866C98.5979 45.512 96.6604 46.1461 94.9976 46.1461C91.3645 46.1461 88.6026 43.5063 88.6026 40.0258C88.6026 36.5453 91.4161 33.9408 95.1526 33.9408C96.9352 33.9408 98.7529 34.6266 99.9695 35.6881L98.4453 37.6256C97.5552 36.8036 96.3199 36.2893 95.155 36.2893C93.0296 36.2893 91.3833 37.9168 91.3833 40.0258C91.3833 42.1348 93.046 43.7787 95.1714 43.7787C95.8924 43.7787 96.7496 43.5228 97.5199 43.1282V39.9741H99.8685H99.8661Z" fill="#BE1724"/>
<path d="M108.866 34.0254H106.073L100.862 46.024H103.654L104.598 43.6942H110.153L111.094 46.024H113.992L108.866 34.0254ZM105.488 41.5148L107.393 36.853L109.279 41.5148H105.488Z" fill="#BE1724"/>
<path d="M124.124 35.2067L123.079 37.4519C121.811 36.698 120.301 36.2166 119.342 36.2166C118.434 36.2166 117.818 36.543 117.818 37.1935C117.818 39.4058 124.213 38.1705 124.194 42.4894C124.194 44.838 122.156 46.1062 119.497 46.1062C117.527 46.1062 115.554 45.3523 114.199 44.2039L115.279 41.9916C116.515 43.0883 118.262 43.7905 119.53 43.7905C120.646 43.7905 121.313 43.3795 121.313 42.6421C121.313 40.3805 114.92 41.7003 114.92 37.4472C114.92 35.2701 116.79 33.8986 119.566 33.8986C121.245 33.8986 122.926 34.4129 124.126 35.202L124.124 35.2067Z" fill="#BE1724"/>
<path d="M131.273 36.3222V46.024H128.565V36.3222H124.913V34.0254H134.944V36.3222H131.273Z" fill="#BE1724"/>
<path d="M144.286 42.0644C145.744 41.3786 146.531 40.0423 146.531 38.1917C146.531 35.5331 144.749 34.0254 141.613 34.0254H136.402V46.024H139.11V42.5951H141.869L143.772 46.024H146.841L144.286 42.0644ZM141.613 40.3335H139.11V36.2706H141.613C143.102 36.2706 143.962 36.9399 143.962 38.2762C143.962 39.6125 143.102 40.3335 141.613 40.3335Z" fill="#BE1724"/>
<path d="M154.401 33.9385C150.733 33.9385 147.954 36.5265 147.954 40.0258C147.954 43.5251 150.733 46.1437 154.401 46.1437C158.069 46.1437 160.848 43.4876 160.848 40.0258C160.848 36.5641 158.069 33.9385 154.401 33.9385ZM154.436 43.7788C152.431 43.7788 150.733 42.1325 150.733 40.0258C150.733 37.9192 152.412 36.3034 154.436 36.3034C156.461 36.3034 158.069 37.9169 158.069 40.0258C158.069 42.1348 156.442 43.7788 154.436 43.7788Z" fill="#BE1724"/>
<path d="M171.031 46.024L165.218 38.3279V46.024H162.63V34.0254H165.101L170.928 41.7379V34.0254H173.499V46.024H171.031Z" fill="#BE1724"/>
<path d="M181.728 33.9385C178.06 33.9385 175.284 36.5265 175.284 40.0258C175.284 43.5251 178.06 46.1437 181.728 46.1437C185.397 46.1437 188.175 43.4876 188.175 40.0258C188.175 36.5641 185.397 33.9385 181.728 33.9385ZM181.764 43.7788C179.758 43.7788 178.06 42.1325 178.06 40.0258C178.06 37.9192 179.742 36.3034 181.764 36.3034C183.786 36.3034 185.397 37.9169 185.397 40.0258C185.397 42.1348 183.769 43.7788 181.764 43.7788Z" fill="#BE1724"/>
<path d="M200.554 46.024V37.9333L197.365 44.8074H195.599L192.41 37.9333V46.024H189.96V34.0254H192.994L196.491 41.3622L199.972 34.0254H202.987V46.024H200.554Z" fill="#BE1724"/>
<path d="M208.424 31.3856C208.424 32.2428 207.842 32.8605 207.001 32.8605C206.16 32.8605 205.578 32.2428 205.578 31.3856C205.578 30.5284 206.16 29.9108 207.001 29.9108C207.842 29.9108 208.424 30.5284 208.424 31.3856Z" fill="#BE1724"/>
<path d="M208.354 34.0254H205.646V46.024H208.354V34.0254Z" fill="#BE1724"/>
<path d="M96.0944 53.5886H93.2997L88.0883 65.5872H90.883L91.8248 63.2574H97.379L98.3231 65.5872H101.219L96.0944 53.5886ZM92.7172 61.078L94.6195 56.4162L96.5054 61.078H92.7172Z" fill="#BE1724"/>
<path d="M106.912 60.7022L105.181 62.621V65.5872H102.473V53.5886H105.181V59.0395L110.169 53.5886H113.307L108.798 58.5933L113.614 65.5872H110.357L106.912 60.7022Z" fill="#BE1724"/>
<path d="M121.743 53.5886H118.948L113.736 65.5872H116.531L117.473 63.2574H123.027L123.969 65.5872H126.867L121.743 53.5886ZM118.365 61.078L120.268 56.4162L122.154 61.078H118.365Z" fill="#BE1724"/>
<path d="M133.21 53.5886H128.119V65.5872H133.107C136.898 65.5872 139.519 63.1189 139.519 59.5867C139.519 56.0545 136.93 53.5886 133.21 53.5886ZM133.279 63.3067H130.827V55.8666H133.159C135.216 55.8666 136.759 57.3932 136.759 59.6055C136.759 61.8178 135.284 63.3067 133.279 63.3067Z" fill="#BE1724"/>
<path d="M144.011 55.8338V58.4383H149.807V60.6858H144.011V63.342H150.629V65.5872H141.303V53.5886H150.442V55.8338H144.011Z" fill="#BE1724"/>
<path d="M163.351 65.5872V57.4965L160.162 64.3706H158.396L155.207 57.4965V65.5872H152.757V53.5886H155.791L159.288 60.9253L162.769 53.5886H165.784V65.5872H163.351Z" fill="#BE1724"/>
<path d="M171.221 50.9488C171.221 51.806 170.639 52.4237 169.798 52.4237C168.957 52.4237 168.375 51.806 168.375 50.9488C168.375 50.0916 168.957 49.4739 169.798 49.4739C170.639 49.4739 171.221 50.0916 171.221 50.9488Z" fill="#BE1724"/>
<path d="M171.151 53.5886H168.443V65.5895H171.151V53.5886Z" fill="#BE1724"/>
<path d="M182.757 54.7698L181.71 57.015C180.441 56.2611 178.934 55.7797 177.973 55.7797C177.064 55.7797 176.447 56.1061 176.447 56.7567C176.447 58.969 182.842 57.7337 182.823 62.0526C182.823 64.4011 180.782 65.6693 178.126 65.6693C176.153 65.6693 174.183 64.9154 172.828 63.767L173.908 61.5547C175.143 62.6515 176.891 63.356 178.159 63.356C179.274 63.356 179.941 62.945 179.941 62.2076C179.941 59.9436 173.546 61.2635 173.546 57.0127C173.546 54.8356 175.413 53.4641 178.192 53.4641C179.871 53.4641 181.552 53.9784 182.752 54.7675L182.757 54.7698Z" fill="#BE1724"/>
<path d="M187.506 50.9488C187.506 51.806 186.923 52.4237 186.083 52.4237C185.242 52.4237 184.659 51.806 184.659 50.9488C184.659 50.0916 185.242 49.4739 186.083 49.4739C186.923 49.4739 187.506 50.0916 187.506 50.9488Z" fill="#BE1724"/>
<path d="M187.438 53.5886H184.73V65.5895H187.438V53.5886Z" fill="#BE1724"/>
<path d="M219.676 0H217.581V80H219.676V0Z" fill="#BE1724"/>
<path d="M31.1954 58.6966H23.1212L27.1583 49.7205L31.1954 58.6966Z" fill="#BE1724"/>
<path d="M56.8765 27.2099H48.8022L52.8394 18.2339L56.8765 27.2099Z" fill="#BE1724"/>
<path d="M27.1583 49.7205L23.1212 58.6966H31.1954L27.1583 49.7205ZM52.8394 18.2339L48.8022 27.21H56.8765L52.8394 18.2339ZM52.8394 18.2339L48.8022 27.21H56.8765L52.8394 18.2339ZM27.1583 49.7205L23.1212 58.6966H31.1954L27.1583 49.7205ZM25.7069 0C11.5101 0 0 11.5101 0 25.7069V80H54.2907C68.4899 80 79.9976 68.4899 79.9976 54.2931V0H25.7069ZM26.4631 11.7966C29.8685 11.7966 33.0883 13.0836 35.5284 15.4157L35.7233 15.6012L32.5505 18.7529L32.3673 18.5815C30.8948 17.2147 28.5791 16.3316 26.4631 16.3316C21.7708 16.3316 18.4922 19.7417 18.4922 24.6219C18.4922 28.2433 20.5848 32.116 26.4631 32.116C28.4922 32.116 29.9906 31.6158 31.5993 30.3922V26.6745H25.4838V22.2381H36.2588V32.379L36.1907 32.4542C33.5721 35.3617 30.4814 36.7168 26.4631 36.7168C16.9493 36.7168 13.558 30.4697 13.558 24.6219C13.558 18.2386 17.5505 11.7966 26.4631 11.7966ZM35.2607 67.6726L33.2433 63.2973H21.0733L19.0207 67.6726H13.558L24.5303 43.9479H29.7863L29.8567 44.1005L40.7586 67.6726H35.2607ZM53.5345 68.2034C49.5162 68.2034 46.4255 66.8483 43.8069 63.9408L43.7412 63.8657V53.7248H54.5138V58.1611H48.3983V61.8788C50.007 63.1024 51.5054 63.6026 53.5345 63.6026C59.4129 63.6026 61.5077 59.7299 61.5077 56.1085C61.5077 51.2283 58.2292 47.8182 53.5345 47.8182C51.4208 47.8182 49.1029 48.7013 47.6327 50.0681L47.4472 50.2395L44.2766 47.0902L44.4716 46.9046C46.9117 44.5702 50.1292 43.2856 53.5345 43.2856C62.4495 43.2856 66.4396 49.7252 66.4396 56.1085C66.4396 61.9563 63.0507 68.2034 53.5345 68.2034ZM60.9417 36.186L58.9244 31.8107H46.7543L44.7017 36.186H39.2414L50.2137 12.4612H55.4673L55.5378 12.6116L66.4396 36.186H60.9417ZM48.8022 27.21H56.8765L52.8394 18.2339L48.8022 27.21ZM23.1212 58.6966H31.1954L27.1583 49.7205L23.1212 58.6966ZM52.8394 18.2339L48.8022 27.21H56.8765L52.8394 18.2339ZM52.8394 18.2339L48.8022 27.21H56.8765L52.8394 18.2339Z" fill="#BE1724"/>
<path d="M31.1954 58.6966H23.1212L27.1583 49.7205L31.1954 58.6966Z" fill="#BE1724"/>
<path d="M56.8765 27.2099H48.8022L52.8394 18.2339L56.8765 27.2099Z" fill="#BE1724"/>
</g>
<defs>
<clipPath id="clip0_2_50">
<rect width="219.676" height="80" fill="white"/>
</clipPath>
</defs>
</svg>
