<svg width="24" height="20" viewBox="0 0 24 20" fill="none" xmlns="http://www.w3.org/2000/svg">
<path d="M24.0002 2.36737C23.1169 2.76917 22.168 3.04009 21.172 3.1624C22.1883 2.53738 22.9696 1.54787 23.337 0.368774C22.3857 0.947314 21.3318 1.36746 20.21 1.59374C19.3124 0.612788 18.0325 0 16.6161 0C13.897 0 11.6921 2.26034 11.6921 5.04908C11.6921 5.44476 11.7357 5.83005 11.8198 6.19943C7.72781 5.98905 4.09927 3.97884 1.6713 0.924074C1.24725 1.66957 1.00451 2.53677 1.00451 3.46268C1.00451 5.2142 1.87348 6.75962 3.19511 7.66535C2.38818 7.63905 1.62895 7.41216 0.96515 7.03361C0.96515 7.0544 0.96515 7.0758 0.96515 7.09721C0.96515 9.54347 2.66252 11.5843 4.91515 12.0478C4.50184 12.1634 4.06706 12.2252 3.61797 12.2252C3.30068 12.2252 2.99234 12.1934 2.69175 12.1347C3.31857 14.1406 5.13701 15.6004 7.29124 15.6408C5.60579 16.9948 3.48318 17.802 1.17628 17.802C0.779071 17.802 0.386635 17.7782 0.00195312 17.7311C2.18122 19.164 4.76903 20 7.55008 20C16.6071 20 21.5597 12.3065 21.5597 5.63435C21.5597 5.41541 21.5549 5.19769 21.5454 4.98119C22.5074 4.26933 23.3423 3.38012 24.0026 2.36737H24.0002Z" fill="white"/>
</svg>
