<svg width="24" height="25" viewBox="0 0 24 25" fill="none" xmlns="http://www.w3.org/2000/svg">
<g clip-path="url(#clip0_87_658)">
<path d="M23.9281 7.4578C23.8694 6.19169 23.6668 5.32774 23.3703 4.57142C23.0636 3.78892 22.6533 3.12641 21.9862 2.46464C21.3191 1.80358 20.6498 1.39706 19.8602 1.09308C19.097 0.799279 18.2251 0.598563 16.9474 0.540385C15.6676 0.482934 15.2588 0.469116 12.0004 0.469116C8.74195 0.469116 8.33245 0.482934 7.05256 0.540385C5.77488 0.598563 4.90304 0.799279 4.1398 1.09308C3.35015 1.39706 2.68086 1.80358 2.01376 2.46464C1.34667 3.12641 0.936428 3.78892 0.629667 4.57142C0.33318 5.32774 0.13063 6.19169 0.07192 7.4578C0.0139437 8.72608 0 9.13115 0 12.3608C0 15.5904 0.0139437 15.9947 0.07192 17.263C0.13063 18.5291 0.33318 19.3931 0.629667 20.1501C0.936428 20.9319 1.34667 21.5951 2.01376 22.2562C2.68086 22.9172 3.35015 23.3238 4.1398 23.6278C4.90304 23.9216 5.77488 24.1223 7.05256 24.1804C8.33245 24.2379 8.74122 24.2517 12.0004 24.2517C15.2595 24.2517 15.6676 24.2379 16.9474 24.1804C18.2251 24.1223 19.097 23.9216 19.8602 23.6278C20.6498 23.3238 21.3191 22.9172 21.9862 22.2562C22.6533 21.5951 23.0636 20.9319 23.3703 20.1501C23.6668 19.3931 23.8694 18.5291 23.9281 17.263C23.9861 15.9947 24 15.5897 24 12.3608C24 9.13188 23.9861 8.72608 23.9281 7.4578ZM21.7683 17.1656C21.7147 18.3248 21.5188 18.9546 21.3544 19.3735C21.1371 19.9283 20.8766 20.3247 20.4568 20.7407C20.0371 21.1574 19.6371 21.4148 19.0772 21.6308C18.6544 21.793 18.0189 21.9871 16.8491 22.0402C15.5839 22.0969 15.2045 22.1093 12.0004 22.1093C8.79626 22.1093 8.41611 22.0969 7.1509 22.0402C5.9811 21.9871 5.34556 21.793 4.92285 21.6308C4.3629 21.4148 3.96294 21.1574 3.54316 20.7407C3.12338 20.3247 2.86286 19.9283 2.64563 19.3735C2.48124 18.9546 2.2853 18.3248 2.23246 17.1656C2.17448 15.9118 2.162 15.5359 2.162 12.3608C2.162 9.18569 2.17448 8.80899 2.23246 7.55524C2.2853 6.39604 2.48124 5.76626 2.64563 5.34737C2.86286 4.7925 3.12338 4.39616 3.54316 3.98018C3.96294 3.56421 4.3629 3.30604 4.92285 3.09078C5.34556 2.92788 5.9811 2.73371 7.1509 2.68135C8.41611 2.6239 8.79552 2.61154 12.0004 2.61154C15.2052 2.61154 15.5839 2.6239 16.8491 2.68135C18.0189 2.73371 18.6544 2.92788 19.0772 3.09078C19.6371 3.30604 20.0371 3.56421 20.4568 3.98018C20.8766 4.39616 21.1371 4.7925 21.3544 5.34737C21.5188 5.76626 21.7147 6.39604 21.7683 7.55524C21.8255 8.80899 21.838 9.18569 21.838 12.3608C21.838 15.5359 21.8255 15.9118 21.7683 17.1656Z" fill="white"/>
<path d="M18.4057 7.43962C19.2009 7.43962 19.8456 6.80081 19.8456 6.01279C19.8456 5.22478 19.2009 4.58597 18.4057 4.58597C17.6105 4.58597 16.9658 5.22478 16.9658 6.01279C16.9658 6.80081 17.6105 7.43962 18.4057 7.43962Z" fill="white"/>
<path d="M12.0003 6.25424C8.59654 6.25424 5.83789 8.9879 5.83789 12.3608C5.83789 15.7337 8.59654 18.4666 12.0003 18.4666C15.404 18.4666 18.1619 15.733 18.1619 12.3608C18.1619 8.98863 15.4033 6.25424 12.0003 6.25424V6.25424ZM12.0003 16.3242C9.79056 16.3242 7.99989 14.5498 7.99989 12.3608C7.99989 10.1718 9.79056 8.39666 12.0003 8.39666C14.21 8.39666 15.9999 10.1711 15.9999 12.3608C15.9999 14.5505 14.2092 16.3242 12.0003 16.3242Z" fill="white"/>
</g>
<defs>
<clipPath id="clip0_87_658">
<rect width="24" height="23.7826" fill="white" transform="translate(0 0.469116)"/>
</clipPath>
</defs>
</svg>
